<svg xmlns="http://www.w3.org/2000/svg" viewBox="0 0 1297.92 1649.24"><defs><style>.cls-1{fill:#0a2f29;}.cls-2{fill:#0a302a;}.cls-3{fill:#d7d8d8;}.cls-4{fill:#061b17;}.cls-5{fill:#1c7f6e;}.cls-6{fill:#d6d7d7;}.cls-7{fill:#26ae96;}.cls-8{fill:#187061;}.cls-9{fill:#36c3ab;}.cls-10{fill:#3fcab2;}.cls-11{fill:#39c6ae;}.cls-12{fill:#8bd1c5;}.cls-13{fill:#b2d5cf;}.cls-14{fill:#17695c;}.cls-15{fill:#77d0c0;}</style></defs><g id="Layer_3" data-name="Layer 3"><path class="cls-1" d="M436.48,627.36q.13-54.45.27-108.91c0-55.43,17.69-77,74.26-84.8,14.65-2,22.61-4.88,19.2-19.85-10.34-45.43,20.4-59.19,53.93-65.56,29.32-5.56,44.82-15.65,40.2-48-5.25-36.92,26.19-42,49.14-45.45,37.69-5.69,51.2-23.43,44.19-59.38-2.82-14.45,3.81-18.87,16.62-26.64C775,144,818,141.74,860.64,153.55c92.16,25.51,186.76,38.93,279.92,59.3,28.88,6.32,56.19,14.11,83.1,25.19-27.08,8.84-67.59,1.54-68,45.26-.36,36.05-8.16,70.79-10.48,106.31L717.68,292.86c0,11.29.11,17.7,0,24.11-.61,29.65,10.21,69.61-4.82,86.36-19.39,21.61-55.61-9.3-88.59-7.33V504c-20.08,4.73-38-2.05-56-9.86-25.09-10.9-40.76-11.24-38.55,25.12,2.91,47.93.72,96.17.71,144.27,0,46.06,0,46.06-46.11,34.37-1.25-.32-2.69-.19-3.81-.74-29.39-14.43-35.93-4.29-36.71,26.73-3.26,129.82,8,259.21,8.76,388.86-79.23-12.27-88.27-63.19-88.53-134.09-.33-88.8-4.75-178-5.25-267-.05-9.07-3.11-16.88-6.14-25.38-3.56-10-8.67-27.31,13.51-27.68,18.06,19.91,45.63,26,66.12,20.46C446.68,675.07,433.39,645.32,436.48,627.36Z" transform="translate(-349.44 -146.64)"/><path class="cls-2" d="M1435.74,1664.76c-16.56,7-30-11.81-46.44-5.65-63-29.45-63-29.45-62.94,37.5,0,10.21.07,20.41.1,30.62-20.14,16.93-34.67-14.85-53.85-6.21-55.52-22.29-55.53-22.29-55.5,37.62,0,10.34.07,20.68.1,31-11.41,12-25.23,3.64-34.69,0-111.86-43-223.08-87.61-334.52-131.65-56.66-22.38-112.69-46.7-170.45-65.77-30.09-9.94-41.62-25.08-38.17-55.35,1.89-16.64,1-33.6,1.4-50.41L732.44,1511c53.17,32.36,114.62,43.73,171.09,67.56,69.69,29.41,140.68,55,212.14,79.57,21.65,17.43,51.32,15.94,73.82,31.35,19.79,13.56,26.7,6.75,28.28-15.6,1.87-26.41-8.49-54.12,7.46-79.18,26.37,9.5,52.78,18.88,79.08,28.56,11.58,4.26,20.49,3.87,21.68-11.12,2.51-31.65,4.73-63.33,7.07-95q1.1-53.57,2.18-107.13c33.81,19.3,72.33,25.25,108.39,38.15C1449,1520.66,1434.69,1592.43,1435.74,1664.76Z" transform="translate(-349.44 -146.64)"/><path class="cls-1" d="M1436.5,791.74c32.44,1.9,63,11.28,93.08,22.93-2,18.77-19.2,23.2-31.39,31.52-13.7,9.35-24.79,19.12-23.42,37.12,5.43,71.33-9.94,141.87-7.9,213.06l-5.5,5.67q-55.21-19.38-110.46-38.73c3.81-38.28,11-76.4,5.11-115.12.43-19.45,4.38-39.66.39-58.15-4.91-22.73,20.35-48.55.19-64.26-16.63-13-43.13-14.65-65.75-18.2-35.34-5.55-48.85-25.39-42-58.94,13.86-68.2,4.58-136.93,6.38-205.4l2-2c28.87-2.76,49.35-27,77.93-30.46,34.39,14.92,75,8.65,107.05,31.6-35.33,5.34-62.81,23.65-66,59.87-5.6,64.2-15,128.4-10.76,193.24,1.2,18.08,9,24.3,24.76,13.67C1404.44,799.6,1418.54,790.88,1436.5,791.74Z" transform="translate(-349.44 -146.64)"/><path class="cls-3" d="M452.53,1112.7c-.8-129.65-12-259-8.76-388.86.78-31,7.32-41.16,36.71-26.73,1.12.55,2.56.42,3.81.74,46.09,11.69,46.1,11.69,46.11-34.37,0-48.1,2.2-96.34-.71-144.27-2.21-36.36,13.46-36,38.55-25.12,18,7.81,35.93,14.59,56,9.86a58.11,58.11,0,0,0,.15,5.9c-1.8,39.86-.09,79.48,7.88,118.7q-.13,54.48-.29,109l-93.37-20.18V932.23q.11,55.29.23,110.59-.58,46.9-1.15,93.79c-27.69.82-50.78-19.66-78.86-17Z" transform="translate(-349.44 -146.64)"/><path class="cls-1" d="M1530.23,1057c34.92,16.5,77.75,10.72,108.67,38.51-17.66,23.13-54.75,26.27-56.54,67.19-4.7,107.63-14.18,215-21.76,322.54l-53.91-14c-17.31-11.21-40.78-8.73-55.78-25.08q-.53-57.6-1.06-115.22c7.21-36.5,12-73.19,8.6-110.51-6.9-39.67,19.86-78.52,2.91-118.44l5.51-5.68C1493.2,1091.65,1508.64,1069.4,1530.23,1057Z" transform="translate(-349.44 -146.64)"/><path class="cls-4" d="M1560.6,1485.27c7.58-107.5,17.06-214.91,21.76-322.54,1.79-40.92,38.88-44.06,56.54-67.19,19.91,21.52-1.81,43,0,64.21,5,59.47-11.78,117.85-7.92,177.08,2,31.05-7.12,60.81-9.79,91.26C1618.45,1459.06,1582.09,1467.07,1560.6,1485.27Z" transform="translate(-349.44 -146.64)"/><path class="cls-1" d="M1225.87,362.51c34.42,4.1,68.62,9.23,100.88,22.89-9.39,12-25.22,11.37-37.1,18.77-12.06,7.51-26.78,12.52-25.39,30.18,2.85,36-4.75,71.27-7.07,106.9l-2,2-107.47-24.49L1147.34,394C1173.5,383.45,1195.64,362.9,1225.87,362.51Z" transform="translate(-349.44 -146.64)"/><path class="cls-2" d="M458.84,1119.59c28.08-2.64,51.17,17.84,78.86,17l-.17-1c-1.5,5.84,2.86,6.6,6.74,7.78l1.53,202.87.12-.11c-5.64-2.76-11.08-7.32-17-8-65.88-7.68-75.25-49.92-69.59-106.06C463.11,1195,459.28,1157.13,458.84,1119.59Z" transform="translate(-349.44 -146.64)"/><path class="cls-4" d="M1436.5,791.74c-18-.86-32.06,7.86-46.29,17.43-15.79,10.63-23.56,4.41-24.76-13.67-4.28-64.84,5.16-129,10.76-193.24,3.15-36.22,30.63-54.53,66-59.87C1451.21,625.75,1429.22,708.41,1436.5,791.74Z" transform="translate(-349.44 -146.64)"/><path class="cls-4" d="M1530.23,1057c-21.59,12.37-37,34.62-63.36,39.34-2-71.19,13.33-141.73,7.9-213.06-1.37-18,9.72-27.77,23.42-37.12,12.19-8.32,29.34-12.75,31.39-31.52,5.64,1.65,14.76-.55,14.65,8.53-.49,41.36,3.52,82.71-2.35,124.1C1536.72,983.7,1534,1020.44,1530.23,1057Z" transform="translate(-349.44 -146.64)"/><path class="cls-4" d="M1450.91,1446.21c15,16.36,38.47,13.88,55.78,25.09-2.87,44.14-3.17,88.65-9.46,132.3-4.74,33-36.92,44.69-61.49,61.16-1-72.33,13.26-144.1,7.89-216.58A48.33,48.33,0,0,1,1450.91,1446.21Z" transform="translate(-349.44 -146.64)"/><path class="cls-5" d="M732.44,1511l-91.66-24.53a11.46,11.46,0,0,1-1.41-6.93q.46-47.08.93-94.17l92.44,22.88Z" transform="translate(-349.44 -146.64)"/><path class="cls-4" d="M1225.87,362.51c-30.23.39-52.37,20.94-78.53,31.47a3.48,3.48,0,0,1-2.17-4.37c2.32-35.52,10.12-70.26,10.48-106.31.42-43.72,40.93-36.42,68-45.26Q1224.76,300.27,1225.87,362.51Z" transform="translate(-349.44 -146.64)"/><path class="cls-2" d="M640.31,1385.38q-.46,47.08-.94,94.17c-22.85-9-45.59-18.37-68.57-27.07-17.17-6.49-27.1-16-25.27-36.73,2-23,.42-46.36.39-69.56l-.12.11c33,4.79,59.17,30.69,93.79,30.58Z" transform="translate(-349.44 -146.64)"/><path class="cls-4" d="M1257.19,541.25c2.32-35.63,9.92-70.86,7.07-106.9-1.39-17.66,13.33-22.67,25.39-30.18,11.88-7.4,27.71-6.74,37.1-18.77,16.58,40.87,2.17,83.82,8.37,125.39C1306.54,514.29,1286.06,538.49,1257.19,541.25Z" transform="translate(-349.44 -146.64)"/><path class="cls-4" d="M1326.46,1727.23c0-10.21-.09-20.41-.1-30.62,0-66.95,0-66.95,62.94-37.5C1387,1699,1353.59,1710.22,1326.46,1727.23Z" transform="translate(-349.44 -146.64)"/><path class="cls-4" d="M1217.21,1789.66c0-10.34-.1-20.68-.1-31,0-59.91,0-59.91,55.5-37.62C1280.47,1750.77,1261,1774.85,1217.21,1789.66Z" transform="translate(-349.44 -146.64)"/><path class="cls-4" d="M436.48,627.36c-3.09,18,10.2,47.71-4.24,51.62-20.49,5.54-48.06-.55-66.12-20.46C387.14,642.64,412.61,636.82,436.48,627.36Z" transform="translate(-349.44 -146.64)"/><path class="cls-6" d="M1145.17,389.61a3.48,3.48,0,0,0,2.17,4.37l.39,124.77-2.88-.06-106.22-23.91C940.44,469.67,842.3,444.35,744,419.62c-17.77-4.46-18.34,9-18.43,21.22q-.33,46.67-.48,93.35L624.4,509.85a58.11,58.11,0,0,1-.15-5.9V396c33-2,69.2,28.94,88.59,7.33,15-16.75,4.21-56.71,4.82-86.36.13-6.41,0-12.82,0-24.11Z" transform="translate(-349.44 -146.64)"/><path class="cls-7" d="M732.44,1511q.15-51.37.31-102.75c6.15-68-12.59-135-7.15-203l-.44.21,398.46,132.92-.31-.38q-3.81,160.05-7.64,320.1c-71.46-24.52-142.45-50.16-212.14-79.57C847.06,1554.74,785.61,1543.37,732.44,1511Z" transform="translate(-349.44 -146.64)"/><path class="cls-7" d="M1335.24,1410q-1.1,53.57-2.18,107.13c-38.23-2.28-72.37-18.72-107.66-31.19-2.75-35.56,12.58-77.13-6.5-105.25s-63.38-28-95.59-42.68l.31.38c0-25.94,1.23-52-.48-77.8-1.66-25,5.64-33.39,30.29-23.34,26.29,10.71,53.12,20.09,79.71,30l108.31,32.31C1343.18,1336.65,1342.27,1373.51,1335.24,1410Z" transform="translate(-349.44 -146.64)"/><path class="cls-8" d="M1123.31,1338c32.21,14.72,76.58,14.67,95.59,42.68s3.75,69.69,6.49,105.26q-.08,54.36-.16,108.73c-16,25.06-5.59,52.77-7.46,79.18-1.58,22.35-8.49,29.16-28.28,15.6-22.5-15.41-52.17-13.92-73.82-31.35Q1119.49,1498.09,1123.31,1338Z" transform="translate(-349.44 -146.64)"/><path class="cls-5" d="M1335.24,1410c7-36.52,7.94-73.38,6.22-110.39,35.63,12.19,69.84,29.25,108.38,31.36q.54,57.62,1.07,115.22a47.14,47.14,0,0,0-7.28,2C1407.57,1435.28,1369.05,1429.33,1335.24,1410Z" transform="translate(-349.44 -146.64)"/><path class="cls-5" d="M1225.23,1594.71q.07-54.36.16-108.73c35.3,12.46,69.44,28.9,107.67,31.18-2.34,31.66-4.56,63.34-7.07,95-1.19,15-10.1,15.38-21.68,11.12C1278,1613.59,1251.6,1604.21,1225.23,1594.71Z" transform="translate(-349.44 -146.64)"/><path class="cls-9" d="M1147.73,518.75l107.47,24.49c-1.8,68.47,7.48,137.2-6.38,205.4-6.82,33.55,6.69,53.39,42,58.94,22.62,3.55,49.12,5.24,65.75,18.2,20.16,15.71-5.1,41.53-.19,64.26,4,18.49,0,38.7-.39,58.15-37.56-5.15-69.83-28.64-108.14-31.21L1139.7,886.21c-.13-31-2.41-62.22.28-93,2.23-25.45-10.65-34.45-31-39.2-27.11-6.32-55.46-8.43-79.51-24.59q.39-58.44.77-116.88c2.27.28,4.54.58,6.81.92,24,7.29,47.61,15.95,72,21.48,24.72,5.62,39.49-3.35,37.86-31.94-1.61-28-1.4-56.22-2-84.33Z" transform="translate(-349.44 -146.64)"/><path class="cls-10" d="M1247.88,917c38.31,2.57,70.58,26.06,108.14,31.21,5.93,38.72-1.3,76.84-5.11,115.13l-1.11,119.27c-36.41-5.79-70-23.49-107.23-25.67C1240.81,1076.86,1235,996.71,1247.88,917Z" transform="translate(-349.44 -146.64)"/><path class="cls-7" d="M1349.8,1182.59l1.11-119.27q55.23,19.35,110.46,38.72c16.94,39.93-9.82,78.78-2.92,118.45C1421.28,1210.6,1384.72,1198.94,1349.8,1182.59Z" transform="translate(-349.44 -146.64)"/><path class="cls-11" d="M639.59,1376.88c-34.62.11-60.76-25.79-93.79-30.58q-.76-101.43-1.51-202.87c-.2-4.37-1-8.24-6.76-7.78l.17,1q.57-46.89,1.15-93.79c31.43,5.08,60.2,21.35,92.67,22.12,31.18,10,60.1,26.75,93.18,31q.52,4.37,1,8.74-.29,50.4-.59,100.79l.45-.2c-32.06-2.11-58.16-26-93.1-24.69C628.91,1246.12,644.82,1311.23,639.59,1376.88Z" transform="translate(-349.44 -146.64)"/><path class="cls-12" d="M538.62,932.23V717.35L632,737.53l-.28-.34.57,116.93c-.13,5.11-.34,10.23-.37,15.35C631.19,966.59,631.2,966.59,538.62,932.23Z" transform="translate(-349.44 -146.64)"/><path class="cls-13" d="M538.62,932.23c92.58,34.36,92.57,34.36,93.29-62.76,0-5.12.24-10.24.37-15.35l92.58,23.34.6,117.73c-11.31-5.48-20.69-13.47-33.5-17.51-60.33-19-60.07-19.79-60.11,41.09,0,15.39-.22,30.78-.33,46.17-32.47-.77-61.24-17-92.67-22.12Q538.73,987.53,538.62,932.23Z" transform="translate(-349.44 -146.64)"/><path class="cls-13" d="M624.4,509.85l100.71,24.34q.24,58.71.45,117.43l-93.28-23.07C624.31,589.33,622.6,549.71,624.4,509.85Z" transform="translate(-349.44 -146.64)"/><path class="cls-12" d="M632.28,628.55l93.28,23.07-.15-.16c0,9,.08,18,.08,27,0,96.56,0,96.56-93.78,58.76l.28.34Q632.14,683,632.28,628.55Z" transform="translate(-349.44 -146.64)"/><path class="cls-14" d="M1349.8,1182.59c34.92,16.35,71.48,28,108.65,37.9,3.41,37.32-1.39,74-8.6,110.51-38.55-2.11-72.76-19.17-108.39-31.36l-108.32-32.3c4.37-36.7-11.76-75.16,9.43-110.42C1279.84,1159.1,1313.39,1176.8,1349.8,1182.59Z" transform="translate(-349.44 -146.64)"/><path class="cls-3" d="M537.53,1135.65c5.77-.46,6.56,3.41,6.76,7.78C540.39,1142.25,536,1141.49,537.53,1135.65Z" transform="translate(-349.44 -146.64)"/><path class="cls-14" d="M639.59,1376.88c5.23-65.65-10.68-130.76-7.09-196.27,34.94-1.35,61,22.58,93.1,24.69-5.44,67.93,13.3,135,7.15,203l-92.45-22.88C640.07,1382.55,639.83,1379.71,639.59,1376.88Z" transform="translate(-349.44 -146.64)"/><path class="cls-12" d="M725.56,651.62q-.21-58.71-.45-117.43.23-46.68.48-93.35c.09-12.26.66-25.68,18.43-21.22,98.28,24.73,196.42,50.05,294.6,75.17q-.82,59.35-1.62,118.69c-2.27-.34-4.54-.64-6.82-.92-25.13.28-46.9-12.17-69.85-19.52-25-8-32.92,0-32.15,24.53.93,29.51.2,59.07.19,88.61l-101.76-23-101.2-31.73Z" transform="translate(-349.44 -146.64)"/><path class="cls-13" d="M1037,613.48q.81-59.34,1.62-118.69l106.23,23.9c.59,28.11.38,56.28,2,84.33,1.63,28.59-13.14,37.56-37.86,31.94C1084.61,629.43,1061,620.77,1037,613.48Z" transform="translate(-349.44 -146.64)"/><path class="cls-5" d="M1242.57,1156.92c-21.19,35.26-5.06,73.72-9.43,110.42-26.59-10-53.42-19.35-79.71-30.06-24.65-10-32-1.69-30.29,23.34,1.71,25.83.44,51.86.48,77.8L725.16,1205.5q.29-50.4.58-100.79c13.36-2,25.37,2.73,37.77,6.77,106.85,34.79,214.27,67.9,320.46,104.59,32.26,11.15,42.76-.13,46.29-28.19,1.61-12.79.6-25.89,1-38.85,3-87.84-7.23-176.07,7.61-263.57l.79.75L1247.88,917C1235,996.71,1240.81,1076.86,1242.57,1156.92Z" transform="translate(-349.44 -146.64)"/><path class="cls-13" d="M826.61,683.19l101.76,23c33.26,9.59,64.78,26.74,101.05,23.26,24,16.16,52.4,18.27,79.51,24.59,20.4,4.75,33.28,13.75,31,39.2-2.69,30.76-.41,62-.28,93l-.79-.75c-17-5.3-34-10.86-51.1-15.85q-134.49-39.24-269-78.23Z" transform="translate(-349.44 -146.64)"/><path class="cls-3" d="M1029.42,729.44c-36.27,3.48-67.79-13.67-101.05-23.26,0-29.54.74-59.1-.19-88.61-.77-24.5,7.11-32.54,32.15-24.53,22.95,7.35,44.72,19.8,69.86,19.52Q1029.8,671,1029.42,729.44Z" transform="translate(-349.44 -146.64)"/><path class="cls-15" d="M818.76,791.38q134.54,39.09,269,78.23c17.12,5,34.07,10.55,51.1,15.85-14.84,87.5-4.65,175.73-7.61,263.57-.44,13,.57,26.06-1,38.85-3.53,28.06-14,39.34-46.29,28.19-106.19-36.69-213.61-69.8-320.46-104.59-12.4-4-24.41-8.77-37.77-6.77-.34-2.92-.69-5.83-1-8.74l.75-100.78-.6-117.73c.23-28.47.89-57,.52-85.42-.22-16.76,3.28-23.42,22.36-17.14C770.73,782.48,795,786.07,818.76,791.38Z" transform="translate(-349.44 -146.64)"/><path class="cls-7" d="M725.46,995.19,724.71,1096c-33.09-4.28-62-21-93.19-31,.11-15.39.31-30.78.33-46.17,0-60.88-.22-60.11,60.11-41.09C704.77,981.72,714.15,989.71,725.46,995.19Z" transform="translate(-349.44 -146.64)"/><path class="cls-3" d="M818.76,791.38c-23.73-5.31-48-8.9-71-16.48-19.08-6.28-22.58.38-22.36,17.14.37,28.47-.29,57-.52,85.42l-92.58-23.34-.57-116.93c93.83,37.8,93.83,37.8,93.78-58.76,0-9,0-18-.08-27l101.2,31.73Q822.68,737.28,818.76,791.38Z" transform="translate(-349.44 -146.64)"/></g></svg>