<svg xmlns="http://www.w3.org/2000/svg" viewBox="0 0 1049.37 1202.64"><defs><style>.cls-1{fill:#383800;}.cls-2{fill:#2a2a00;}.cls-3{fill:#494900;}.cls-4{fill:#80440b;}.cls-5{fill:#373700;}.cls-6{fill:#99720d;}.cls-7{fill:#b2b262;}.cls-8{fill:#b2b2b2;}.cls-9{fill:#b2b208;}.cls-10{fill:#9b9b00;}.cls-11{fill:#99530d;}.cls-12{fill:#5e5e00;}.cls-13{fill:#7a7a00;}</style></defs><g id="Layer_4" data-name="Layer 4"><path class="cls-1" d="M1516.58,1063.78c12.78,7.25,6.61,19.5,6.65,29.23.51,107.35-.46,214.7,1,322,.29,21.64-8,31.82-25.32,41.17-38,20.5-72.48,45.36-105.61,73.82-23.85,20.48-53.24,35.34-78.11,56.66-34.45,29.54-66.85,8.64-97.14-12.61q0-36.36-.08-72.74c19.4,5.72,34.89,21.32,58.51,23.25,0-9.22-.07-17.5,0-25.78.35-40.43.58-41,37.54-26.52,13,5.1,19.82,6.47,20.82-10.82.86-15-8.07-36.8,6-43.38,14.27-6.69,29.48,12,45.31,17.07,3.33,1.06,6.87,1.45,12.94,2.68V1362q-.09-36.27-.17-72.55l.06-152c3.69-78,3.69-78-63.15-102.11l-118.62-65.16-.3-73c37.9,18.8,77.06,35.47,113.37,56.95,41.79,24.73,82.13,39.16,126.72,8.72q1,36.14,1.94,72.27l-51.78,26.49C1455.65,1100.3,1466.84,1100.21,1516.58,1063.78Z" transform="translate(-475.32 -398.68)"/><path class="cls-1" d="M1269.48,787.6c16.24,25.49,1.71,53.95,7.74,80.42l-64.06,26.57-59.09-26.38-123.71-64.92s-.92-2.1-.91-2.1c-.4-80-.4-80-57.09-100.14-20-15.73-43.68-24.41-66.34-35.06l-57.9-31c12-58.81-12.14-93.89-69.31-110.19-19.11-5.45-36.32-17.62-54.39-26.71l-.51-.67-.18-58.71q.78-6.74,1.57-13.45c25.81,13,53.39,23.44,77,39.63,37.14,25.43,67,14.52,96.49-11.57,14.94,22.95,3,48.64,7.39,72.67-6.7,4.79-13.34,9.67-20.14,14.34-8.39,5.77-23.22,6.24-22.21,20,.93,12.75,14.81,14.19,24,18.94,27.67,14.35,57.64,25.18,83.08,42.68,40.79,28.07,78.52,28.46,117.38-1.12,14.51,25.61,2.25,53.58,7.1,80.05-7.07,1.17-14.88.85-21,3.86-10.41,5.1-26.45,6.48-28.22,19.67-2.37,17.67,16.55,18.09,27.16,23.76,32.94,17.59,68.53,30.86,99.6,51.15C1210.52,823.88,1240,813.71,1269.48,787.6Z" transform="translate(-475.32 -398.68)"/><path class="cls-2" d="M534.79,934.06c-51.58-14-62.14-48.82-59-98.86,4.84-75.9,2-152.29,2.37-228.47l56.91,21.78.27,7.61.51,73q.15,35.91.29,71.82L536,860.77q-.33,36.4-.64,72.8Z" transform="translate(-475.32 -398.68)"/><path class="cls-2" d="M723.61,1101.31c-61.75-24.3-118.74-58.44-178.74-86.3-10.71-5-9.62-11.72-9.7-19.72-.21-20.41-.26-40.82-.38-61.23l.57-.49,64.76,29.9c38.71,29.28,89.11,38.08,125.43,71.55Q724.58,1068.17,723.61,1101.31Z" transform="translate(-475.32 -398.68)"/><path class="cls-2" d="M1094.26,1435.63c-61.78-24.29-118.76-58.51-178.81-86.33-10.76-5-9.54-11.81-9.62-19.78-.2-20.42-.21-40.84-.3-61.25l.45-.36c18.21,9.28,36.65,18.15,54.6,27.92,45.17,24.57,94.9,40.75,135.63,73.51Z" transform="translate(-475.32 -398.68)"/><path class="cls-2" d="M905.53,1268.27c-47.79-24.24-94.62-50.73-143.76-71.86-28.8-12.38-44.66-26.72-37.91-59.36,1.92-9.28,1-19.14,1.43-28.73l56.57,22.31c18.9,10.32,36.79,23.64,56.89,30.38,52.65,17.67,80.18,49,67.23,106.9Z" transform="translate(-475.32 -398.68)"/><path class="cls-1" d="M658.32,482.28c.82-5.41-1-12.12,6.85-14.11l58.74,29.22.51.66c-1,71.14-1,71.11-57.9,48.4-1.73-.69-4.26.64-9.07,1.51v63.89c-57.5-17.07-57.5-17.07-56.8,45.8,0,2.41.21,4.81.32,7.21l-36.82-21.62q0-36.42.05-72.82c36.35,17.17,36.37,17.17,36.32-23.56,0-7-.23-14-.35-21q.8-6.72,1.58-13.45C659.27,542.4,659.27,542.4,658.32,482.28Z" transform="translate(-475.32 -398.68)"/><path class="cls-3" d="M1213.14,894.6,1277.22,868c61.32,28.93,125.94,51.6,179.71,94.85-44.59,30.44-84.93,16-126.72-8.72-36.31-21.48-75.47-38.15-113.36-56.95A9,9,0,0,1,1213.14,894.6Z" transform="translate(-475.32 -398.68)"/><path class="cls-3" d="M1269.48,787.6c-29.48,26.11-59,36.28-96.6,11.7-31.07-20.29-66.66-33.56-99.6-51.15-10.61-5.67-29.53-6.09-27.16-23.76,1.77-13.19,17.81-14.57,28.22-19.67,6.16-3,14-2.69,21-3.86C1155.63,725.32,1213,755.48,1269.48,787.6Z" transform="translate(-475.32 -398.68)"/><path class="cls-3" d="M1088.28,620.81c-38.86,29.58-76.59,29.19-117.38,1.12-25.44-17.5-55.41-28.33-83.08-42.68-9.15-4.75-23-6.19-24-18.94-1-13.77,13.82-14.24,22.21-20,6.8-4.67,13.44-9.55,20.14-14.34Z" transform="translate(-475.32 -398.68)"/><path class="cls-2" d="M1217.94,1501.34q0,36.38.08,72.74c-36.61-17.31-73-35.09-109.91-51.73-16.12-7.27-13.36-20.45-13.28-33.14.08-15.53.72-31,1.11-46.58l56.44,22.09c19.93,15.84,43.8,24.22,66.35,35.13Z" transform="translate(-475.32 -398.68)"/><path class="cls-3" d="M898.82,453.29c-29.46,26.09-59.35,37-96.49,11.57-23.64-16.19-51.22-26.62-77-39.63,30.94-28.32,63.18-36.87,101.14-11.39C849.16,429.09,874.6,440.28,898.82,453.29Z" transform="translate(-475.32 -398.68)"/><path class="cls-4" d="M781.86,1130.63l-56.57-22.31a21.16,21.16,0,0,1-1.68-7q1-33.15,1.93-66.3c52.17,11.27,56.78,16.71,56.68,67.13C782.2,1111.65,782,1121.14,781.86,1130.63Z" transform="translate(-475.32 -398.68)"/><path class="cls-4" d="M1152.37,1464.72l-56.43-22.09a21.34,21.34,0,0,1-1.67-7q1-33.15,1.93-66.29c21.65.17,37.76,14.4,56.37,22.28Z" transform="translate(-475.32 -398.68)"/><path class="cls-3" d="M1516.58,1063.78c-49.74,36.43-60.93,36.52-109.49-2.15l51.78-26.49C1480.32,1040.23,1498.87,1051.15,1516.58,1063.78Z" transform="translate(-475.32 -398.68)"/><path class="cls-5" d="M535.11,628.51,478.2,606.73c11.62-23.4,39.4-22.23,56.58-37.18C545.21,589.15,545.62,608.8,535.11,628.51Z" transform="translate(-475.32 -398.68)"/><path class="cls-3" d="M600.17,525.89c.12,7,.34,14,.35,21,.05,40.73,0,40.73-36.32,23.56l-22.12-15.36C559.84,542.13,578.85,531.7,600.17,525.89Z" transform="translate(-475.32 -398.68)"/><path class="cls-1" d="M542.08,555.06l22.12,15.36q0,36.41-.05,72.81l-28.77-7.11-.27-7.61c10.51-19.71,10.1-39.36-.33-59C535.47,563.84,534,557.06,542.08,555.06Z" transform="translate(-475.32 -398.68)"/><path class="cls-3" d="M723.91,497.39l-58.74-29.22C683,455,702.24,444.61,723.73,438.68Z" transform="translate(-475.32 -398.68)"/><path class="cls-3" d="M658.32,482.28c.95,60.12.95,60.12-56.57,30.16C617.39,496.36,637.78,489.18,658.32,482.28Z" transform="translate(-475.32 -398.68)"/><path class="cls-6" d="M1399,1362v75.82c-6.07-1.23-9.61-1.62-12.94-2.68-15.83-5-31-23.76-45.31-17.07-14,6.58-5.09,28.37-6,43.38-1,17.29-7.81,15.92-20.82,10.82-37-14.48-37.19-13.91-37.54,26.52-.08,8.28,0,16.56,0,25.78-23.62-1.93-39.11-17.53-58.51-23.25l.78-1.49-.12-144.93c57.28,19.86,57.28,19.86,58-43.58,0-2.37.19-4.74.29-7.11C1317.73,1323.15,1355.73,1348.17,1399,1362Z" transform="translate(-475.32 -398.68)"/><path class="cls-7" d="M1399,1362c-43.29-13.85-81.29-38.87-122.19-57.79q-.6-40-1.19-80,.51-36.33,1-72.67l-.41.3,57.59,28c-8.48,54.4,5.93,95.22,65,109.51Q1398.93,1325.74,1399,1362Z" transform="translate(-475.32 -398.68)"/><path class="cls-8" d="M1217.14,970.17l118.62,65.16-1.41,73,.48-.34-58.35-28.76c-16.57-16.2-38-25.63-58.76-32.22-54.21-17.2-76.1-51-64.65-106.58C1174.31,950.59,1193.68,964.77,1217.14,970.17Z" transform="translate(-475.32 -398.68)"/><path class="cls-8" d="M1398.85,1289.47c-59.09-14.29-73.5-55.11-65-109.51q.5-36,1-72l-.48.34,64.56,29.12Z" transform="translate(-475.32 -398.68)"/><path class="cls-9" d="M1217.14,970.17c-23.46-5.4-42.83-19.58-64.07-29.75l.36.66q.32-36.44.64-72.87l59.09,26.38a8.76,8.76,0,0,0,3.69,2.61Q1217,933.68,1217.14,970.17Z" transform="translate(-475.32 -398.68)"/><path class="cls-10" d="M1398.91,1137.44l-64.56-29.12,1.41-73C1402.6,1059.39,1402.6,1059.39,1398.91,1137.44Z" transform="translate(-475.32 -398.68)"/><path class="cls-7" d="M1153.07,940.42c-11.45,55.56,10.44,89.38,64.65,106.58,20.77,6.59,42.19,16,58.76,32.22l-.24,72.69.41-.3-58.59-27.84V1195c-24.24-4-43.3-19.51-65-29.09l.32.44c-.15-12.09-2.16-24.5-.1-36.19,5.59-31.65-9-46.84-37-59.22-49.34-21.81-96.79-47.94-145-72.26l.44.59c-.15-15.69-2.48-31.74,0-47,4.32-26.16-10.13-37-30.82-44.56-55.4-20.15-105.75-50.77-158.61-76.19l.44.59c-.15-12.08-2.15-24.49-.1-36.18,5.56-31.6-8.36-47.78-37-59.21-30-12-57.89-29-86.7-43.84-.72-70.59-.73-70.55,57.05-48.16,1.66.65,4.21-1,8.13-2.12,0-11.6.89-23.69-.18-35.61-2.47-27.35,6.39-31.58,30.1-18.49,30.59,16.89,62.66,31.11,94.1,46.47L906,666q-18.64,84.93,65.24,107.85l58.18,27.35s.92,2.1.91,2.1c-.34,9.58.37,19.35-1.2,28.73-5.74,34.37,5.92,55.79,40.41,68,29.14,10.35,56,27.11,83.87,41Z" transform="translate(-475.32 -398.68)"/><path class="cls-9" d="M848.12,635c-31.44-15.36-63.51-29.58-94.1-46.47-23.71-13.09-32.57-8.86-30.1,18.49,1.07,11.92.18,24,.18,35.61-3.92,1.09-6.47,2.77-8.13,2.12-57.78-22.39-57.77-22.43-57.05,48.17l-57.95-28c-.11-2.4-.29-4.8-.32-7.21-.7-62.87-.7-62.87,56.8-45.8V548c4.81-.87,7.34-2.2,9.07-1.51,56.92,22.71,56.9,22.74,57.9-48.4,18.07,9.1,35.28,21.27,54.39,26.72C836,541.07,860.11,576.15,848.12,635Z" transform="translate(-475.32 -398.68)"/><path class="cls-8" d="M1153.43,941.08c-27.87-13.92-54.73-30.68-83.87-41-34.49-12.24-46.15-33.66-40.41-68,1.57-9.38.86-19.15,1.2-28.73l123.72,64.92Q1153.74,904.65,1153.43,941.08Z" transform="translate(-475.32 -398.68)"/><path class="cls-8" d="M971.26,773.84Q887.5,750.85,906,666c22.66,10.65,46.37,19.33,66.34,35Q971.81,737.45,971.26,773.84Z" transform="translate(-475.32 -398.68)"/><path class="cls-9" d="M971.26,773.84q.54-36.4,1.1-72.8c56.69,20.14,56.69,20.14,57.09,100.15Z" transform="translate(-475.32 -398.68)"/><path class="cls-10" d="M536.18,781q-.13-35.91-.29-71.82c12.85-.53,22.49,7.44,33,12.82q107,54.85,213.81,110.11l-.44-.59c0,8.45,1.37,17.16-.25,25.29-7.5,37.7,10.77,56.21,44,70.55,49.66,21.43,97.23,47.7,145.68,71.91l-.44-.59c0,9.64,1.48,19.56-.27,28.88-7,37,9.56,56.17,43.25,70.32,47.58,20,92.89,45.38,139.16,68.47l-.32-.44q-.15,76.53-.29,153c-52.87-26.51-105.47-53.57-158.76-79.21-16.11-7.74-26.68-17.06-22.61-35.59,9.46-43.09-12.81-64.52-50-77.59-13.56-4.77-25.51-14.18-39.11-18.78-28.48-9.63-39.6-28.18-34.66-57.51,4.42-26.22-6.1-41.78-31.32-52.88-45.25-19.91-88.78-43.73-133.1-65.76C669.79,925,655,918.07,659.06,900.13c11.77-52.54-20.82-72.23-61.42-88.34C576.42,803.37,556.62,791.37,536.18,781Z" transform="translate(-475.32 -398.68)"/><path class="cls-11" d="M536.18,781c20.44,10.38,40.24,22.38,61.46,30.8,40.6,16.11,73.19,35.8,61.42,88.34-4,17.94,10.73,24.85,24.09,31.49,44.32,22,87.85,45.85,133.1,65.76,25.22,11.1,35.74,26.66,31.32,52.88-4.94,29.33,6.18,47.88,34.66,57.51,13.6,4.6,25.55,14,39.11,18.78,37.22,13.07,59.49,34.5,50,77.59-4.07,18.53,6.5,27.85,22.61,35.59,53.29,25.64,105.89,52.7,158.77,79.21l-.18,72.68c-18.61-7.88-34.72-22.11-56.37-22.28-40.72-32.76-90.45-48.94-135.62-73.51-18-9.77-36.39-18.64-54.6-27.92,12.95-57.9-14.58-89.23-67.23-106.9-20.1-6.74-38-20.06-56.89-30.38.12-9.49.34-19,.36-28.48.1-50.42-4.51-55.86-56.68-67.13-36.31-33.47-86.71-42.27-125.42-71.55,1.45-79,1.45-79-64.12-102.7Z" transform="translate(-475.32 -398.68)"/><path class="cls-12" d="M782.69,832.1Q675.8,777,568.88,722c-10.5-5.38-20.14-13.35-33-12.82l-.51-73,28.77,7.11q18.4,10.83,36.82,21.63l57.95,28c28.81,14.82,56.74,31.86,86.7,43.83,28.61,11.43,42.53,27.61,37,59.21C780.54,807.61,782.54,820,782.69,832.1Z" transform="translate(-475.32 -398.68)"/><path class="cls-4" d="M536,860.77c65.57,23.66,65.57,23.66,64.12,102.7l-64.76-29.9Q535.68,897.17,536,860.77Z" transform="translate(-475.32 -398.68)"/><path class="cls-13" d="M1152.57,1391.62l.18-72.68q.13-76.51.28-153c21.73,9.58,40.79,25.11,65,29.09l.69,8-.15,152,.12,144.93c-22.54-10.91-46.41-19.29-66.34-35.13Q1152.47,1428.18,1152.57,1391.62Z" transform="translate(-475.32 -398.68)"/><path class="cls-9" d="M1218.6,1354.92l.15-152,56.89,21.34q.6,40,1.19,80c-.09,2.37-.25,4.74-.28,7.11C1275.88,1374.78,1275.88,1374.78,1218.6,1354.92Z" transform="translate(-475.32 -398.68)"/><path class="cls-10" d="M1275.64,1224.28l-56.89-21.34-.69-8v-71.22l58.59,27.84Q1276.15,1187.94,1275.64,1224.28Z" transform="translate(-475.32 -398.68)"/><path class="cls-10" d="M1276.24,1151.91l.24-72.69,58.35,28.76q-.51,36-1,72Z" transform="translate(-475.32 -398.68)"/><path class="cls-12" d="M1153.35,1166.34c-46.27-23.09-91.58-48.49-139.16-68.47-33.69-14.15-50.23-33.29-43.25-70.32,1.75-9.32.27-19.24.27-28.88,48.24,24.32,95.69,50.45,145,72.26,28,12.38,42.6,27.57,37,59.22C1151.19,1141.84,1153.2,1154.25,1153.35,1166.34Z" transform="translate(-475.32 -398.68)"/><path class="cls-12" d="M971.65,999.26c-48.45-24.21-96-50.48-145.68-71.91C792.77,913,774.5,894.5,782,856.8c1.62-8.13.25-16.84.25-25.29,52.86,25.42,103.21,56,158.61,76.19,20.69,7.53,35.14,18.4,30.82,44.56C969.17,967.52,971.5,983.57,971.65,999.26Z" transform="translate(-475.32 -398.68)"/></g></svg>