<svg xmlns="http://www.w3.org/2000/svg" xmlns:xlink="http://www.w3.org/1999/xlink" viewBox="0 0 1341.35 807.84"><defs><style>.cls-1{fill:none;}.cls-2{fill:#6660e2;}.cls-3{clip-path:url(#clip-path);}.cls-4{fill:#7575ea;}.cls-5{fill:#fff;}</style><clipPath id="clip-path" transform="translate(-252.22 -576.48)"><path class="cls-1" d="M1428.89,1061.55s70.49,63.73,91.73,87.87S1565,1244,1479.1,1298.11s-29.93,110.08-147.73,56c-51.09-68.8-60.83-72.41-92.69-118.76-21.24-16.51-65.66-59.86-117.8-75.31s-85.93-21.24-140-25.11-97.34-10.63-151.59-26.07c-25-15.61-49.25-23.17-73.39-32.82-10.21-2.8-123.59-9.66-139-11.59s-22.43,2.9-40.66-2.9-98.37-29.93-119.62-40.55-93.66-29.93-115.86-34.76S240.09,955.44,244,942.89s27.27-40.42,85.18-38.72c68.55,2.89,27,14.48,109.11,24.14S558.93,948.22,531.9,904s-36.69-74.17-46.35-86.72-34.76-55.68-48.28-102.67-46.34-115.55,33.8-81.75c57.93,38.62,44.93,83,73.15,117.8,41,10,20.17-36.7,16-79.18-1.58-16.08-12.34-63.24-9-75.55,5.47-20.2,29.86,1.25,54.08,21.48C644.25,650,640,752.07,646.8,775.5c4.29,14.86,72.37,55.32,96.7,28.38-14.28-41.93-7.56-75.5-8.84-118.89-3.61-122.27,38.51-67.55,63.19-18.35,16.95,69.52-21.75,72.42,27.43,88.83,0,0,122.81,11.59,217.89,49.25,91,28.95,123.09,29.93,169.44,50.2s77.24,57.94,107.18,95.59S1428.89,1061.55,1428.89,1061.55Z"/></clipPath></defs><g id="Layer_4" data-name="Layer 4"><path class="cls-2" d="M1446.5,1053.06s70.48,63.73,91.73,87.87,44.41,94.62-41.52,148.69-29.94,110.08-147.73,56c-51.1-68.81-60.83-72.42-92.7-118.77-21.24-16.51-65.65-59.86-117.79-75.31s-85.94-21.24-140-25.1-97.34-10.64-151.59-26.07c-25-15.61-49.24-23.18-73.38-32.83-10.22-2.8-123.59-9.66-139-11.59s-22.43,2.9-40.67-2.9-98.37-29.93-119.61-40.55-93.66-29.93-115.87-34.76S257.69,947,261.55,934.4s27.28-40.42,85.19-38.72c68.55,2.9,27,14.48,109.1,24.14s120.7,19.92,93.66-24.32-36.69-74.17-46.35-86.72-34.76-55.68-48.27-102.67-46.35-115.54,33.79-81.75c57.93,38.62,44.93,83,73.16,117.8,41,10,20.16-36.69,16-79.18-1.59-16.08-12.34-63.24-9-75.55,5.47-20.2,29.85,1.26,54.07,21.48,39,32.55,34.76,134.67,41.52,158.1,4.29,14.87,72.37,55.32,96.7,28.38-14.28-41.93-7.55-75.5-8.83-118.89-3.61-122.27,38.5-67.55,63.18-18.35,17,69.52-21.75,72.42,27.43,88.84,0,0,122.81,11.58,217.9,49.24,91,28.95,123.09,29.93,169.43,50.21s77.25,57.93,107.18,95.59S1446.5,1053.06,1446.5,1053.06Z" transform="translate(-252.22 -576.48)"/><g class="cls-3"><path class="cls-4" d="M1446.5,1050.22s70.48,63.73,91.73,87.87,44.41,94.62-41.52,148.69-29.94,110.08-147.73,56c-51.1-68.81-60.83-72.42-92.7-118.77-21.24-16.51-65.65-59.86-117.79-75.31s-85.94-21.24-140-25.1-97.34-10.64-151.59-26.07c-25-15.61-49.24-23.18-73.38-32.83-10.22-2.8-123.59-9.66-139-11.59s-22.43,2.9-40.67-2.9-98.37-29.93-119.61-40.55-93.66-29.93-115.87-34.76-100.63-30.8-96.77-43.35,27.28-40.42,85.19-38.72c68.55,2.9,27,14.48,109.1,24.14s120.7,19.91,93.66-24.32-36.69-74.17-46.35-86.72-34.76-55.68-48.27-102.67-46.35-115.55,33.79-81.75c57.93,38.62,44.93,83,73.16,117.8,41,10,20.16-36.69,16-79.18-1.59-16.08-12.34-63.24-9-75.55,5.47-20.2,29.85,1.25,54.07,21.48,39,32.55,34.76,134.67,41.52,158.1,4.29,14.86,72.37,55.32,96.7,28.38-14.28-41.93-7.55-75.5-8.83-118.89-3.61-122.27,38.5-67.55,63.18-18.35,17,69.52-21.75,72.42,27.43,88.83,0,0,122.81,11.59,217.9,49.25,91,29,123.09,29.93,169.43,50.21s77.25,57.93,107.18,95.59S1446.5,1050.22,1446.5,1050.22Z" transform="translate(-252.22 -576.48)"/></g></g><g id="Layer_1" data-name="Layer 1"><path class="cls-5" d="M673.75,791.4c18.39,27.3,41.27,39.75,66,48.25,21.53,7.39,44,12.29,66.15,17.65,60.12,14.54,120.49,28.09,180.43,43.33,30.34,7.71,57,22.66,74.41,48.72-25.12-13.29-49.92-33.93-77.57-39-27.42-5-57.7,5.76-88.47,9.84l52.35-19.11c-55.22-9.81-106.4-37.71-167.59-37.61l26,34.65c-32.67-10.06-45.16-56.31-88.06-48.49l4.65-8.45c-29.73-12.21-50.29-33.67-65.91-61.34-9.26-16.41-7.66-30.58,0-46.2,7.12-14.54,18.6-14,31.65-11.28,21.65,4.44,44.15,6.16,64.91,13.12,21.2,7.1,27.25,23.63,21.38,44.29C768,801.25,753.43,812.25,732.31,810c-9.66-1-19.24-3.7-28.56-6.58C695.26,800.77,687.18,796.85,673.75,791.4Z" transform="translate(-252.22 -576.48)"/><path class="cls-5" d="M300.67,960.26c50.21,16.45,101.22,30.45,151.58,46.47,29.7,9.44,59.4,19.43,87.94,31.85,31.86,13.87,64.12,21.14,99,20.66,34-.47,68.21,1,102.16,3.75,24.34,2,47.55,6.12,70.19,20,23.74,14.6,52.21,24.33,79.84,29.22,66.89,11.86,134.37,20.7,201.84,28.77,55.85,6.68,102.81,30.46,139.65,71.47,40.57,45.16,77.84,93.27,116.77,139.9,9.22,11,19.36,21.3,29.08,31.91-7.54-16.7-18.47-30.36-28.61-44.58-46.11-64.63-92.83-128.71-160.36-173.46-11.84-7.85-23.89-18.45-37.06-20.72-84.32-14.48-168.94-27.2-253.52-40-30.71-4.66-60.71-10.59-90.28-32.06l24.5,4c-7.78-5.51-16.06-9.78-24.68-10.69-55.87-5.83-111.72-12.92-167.76-15.57-37.32-1.76-72.25-7.19-105.87-24.33-20.74-10.58-43.46-17.56-65.75-24.72-50.11-16.1-103.09-23.65-148.12-54.52-13.62-9.34-31.22-13.21-47.4-18.31-5.22-1.64-11.73.82-17.64,1.4C256.14,930.76,232.66,930.29,300.67,960.26Z" transform="translate(-252.22 -576.48)"/><path class="cls-5" d="M1590.18,1178.86c-11.31-8-23.14-15.35-33.85-24.07-91.12-74.31-176.19-154.93-249.7-246.93-35.88-44.9-83.52-68-137.17-81.62-46.2-11.72-92.77-22-139-33.73-49.33-12.58-98.15-27.24-147.69-38.91-22.74-5.36-46.67-5.58-70-8.49-6.45-.81-12.74-2.93-19.1-4.44.42-2.33.83-4.65,1.25-7,36.93,5,74.44,7.55,110.68,15.67,70.71,15.84,140.81,34.47,211,52.67,32.27,8.36,64.06,18.57,96.14,27.71,40.1,11.42,70.48,36.77,96.32,68,81.29,98.39,172.59,186.41,272.85,265.24,4.07,3.2,7.79,6.84,11.66,10.28Z" transform="translate(-252.22 -576.48)"/><path class="cls-5" d="M842.88,919.05c-45.53,20.23-88.61,26.85-134.11,22.4-23.8-2.32-48.41.9-72.34,4-13.41,1.75-28.48,5.79-29.75,24.93-.37-6.76-.74-13.52-1.25-22.89-33.06-6.41-66.73-13.15-100.49-19.41-32-5.93-64.11-11.15-96.1-17.07-24.89-4.6-49.56-12.55-74.57-13.68-14.91-.67-30.28,9-45.44,14,10.54-17.88,40.55-30.5,65.53-24.45C391.15,895.8,427,909,464,916.66c45.9,9.49,92.6,15.16,138.95,22.44a15.89,15.89,0,0,0,5.89.24c66.64-16,136.27,4.8,202.56-16.52C820.38,919.92,830.48,920.43,842.88,919.05Z" transform="translate(-252.22 -576.48)"/><path class="cls-5" d="M549.66,731.83l-16.56,3.66L550,723.68c-22.55-65.55-32.92-78.62-82.15-103.61,16.85-5.09,36,1.31,49.63,21.87,14.33,21.61,26,45.18,37.09,68.71,33.21,70.3,74.07,133.84,144.54,173A291.64,291.64,0,0,1,738,909.93c-36.9-4.91-60.42-45.47-102.64-40.27l8.22-7.61Z" transform="translate(-252.22 -576.48)"/><path class="cls-5" d="M555.34,904c-2.67-1.24-6.75-1.77-7.81-3.83-42.64-83.13-94.95-162-114.71-255.33a103.36,103.36,0,0,1-1.68-34c11.12-4,33,48.21,32.14,76.87-1,34.66,15.36,62.82,26.84,92.81,5.48,14.31,16.94,26.21,24.61,39.8,15.09,26.76,29.42,53.94,44.07,80.94Z" transform="translate(-252.22 -576.48)"/><path class="cls-5" d="M563.36,609.32c6.32,41.24,12.76,82.48,20.23,123.52,1.23,6.73,7.66,12.5,10.21,16.44-2.41-27.86-6.68-56.9-6.94-86-.27-29.77-3.55-57.92-18.4-83.7C568.46,579.61,558,574.26,563.36,609.32Z" transform="translate(-252.22 -576.48)"/><path class="cls-5" d="M760.1,599.59c11.55,19.69,8.78,37.44,4.86,54.84-3.72,16.47-9,32.6-13.54,48.84C742.59,691.72,747,624.28,760.1,599.59Z" transform="translate(-252.22 -576.48)"/><path class="cls-5" d="M656.69,700.52c-13.11-40.57-11.12-83.89-55.51-103.17C631.3,589.22,667.72,655.13,656.69,700.52Z" transform="translate(-252.22 -576.48)"/><path class="cls-5" d="M816.63,711.22c1-31.54-4.87-60.85-25.86-85.8C818,638.81,829.46,675.69,816.63,711.22Z" transform="translate(-252.22 -576.48)"/></g></svg>