<svg id="Layer_5" data-name="Layer 5" xmlns="http://www.w3.org/2000/svg" xmlns:xlink="http://www.w3.org/1999/xlink" viewBox="0 0 549.35 489.48"><defs><style>.cls-1,.cls-3{fill:none;}.cls-2{clip-path:url(#clip-path);}.cls-3{stroke:#fff;stroke-miterlimit:10;stroke-width:8px;stroke-dasharray:35.87 35.87;}.cls-4{clip-path:url(#clip-path-2);}</style><clipPath id="clip-path" transform="translate(-972.81 -790.13)"><polygon class="cls-1" points="1056 1131.9 997.02 1178.86 944.74 1254.1 973.31 1304.57 1056 1289.97 1141.12 1272.34 1209.21 1223.1 1234.14 1203.03 1416.02 1024.16 1395.82 1001.62 1141.12 1147.1 1074.85 1135.55 1056 1131.9"/></clipPath><clipPath id="clip-path-2" transform="translate(-972.81 -790.13)"><polygon class="cls-1" points="1345.89 949.35 1387.96 826.08 1453.63 783.52 1523.55 787.77 1553.95 821.21 1529.63 901.47 1490.72 956.28 1430.53 1021.85 1422.01 1029.15 1382 1012.12 1372.77 973.47 1345.89 949.35"/></clipPath></defs><g class="cls-2"><path class="cls-3" d="M1273.67,1034.87c42.13-25.81,82.75-61.24,135.42-184.62,42.13-78.93,176-92.47,67.71,77.94-135.42,177.17-400.24,354.71-474,347.19s25.58-102.32,94.79-138.43S1231.54,1060.68,1273.67,1034.87Z" transform="translate(-972.81 -790.13)"/></g><g class="cls-4"><path class="cls-3" d="M1273.67,1034.87c42.13-25.81,82.75-61.24,135.42-184.62,42.13-78.93,176-92.47,67.71,77.94-135.42,177.17-400.24,354.71-474,347.19s25.58-102.32,94.79-138.43S1231.54,1060.68,1273.67,1034.87Z" transform="translate(-972.81 -790.13)"/></g></svg>