<svg id="Layer_5" data-name="Layer 5" xmlns="http://www.w3.org/2000/svg" xmlns:xlink="http://www.w3.org/1999/xlink" viewBox="0 0 568.23 455.31"><defs><style>.cls-1,.cls-3{fill:none;}.cls-2{clip-path:url(#clip-path);}.cls-3{stroke:#fff;stroke-miterlimit:10;stroke-width:8px;stroke-dasharray:35.28 35.28;}</style><clipPath id="clip-path" transform="translate(-1097.89 -947.67)"><path class="cls-1" d="M1444.76,1050.1l45.87-48.48,78.26-52.27L1631,928.81l61.16,13.36-6.3,31.3-15.29,49.65-29.68,27-60.26,44.08s-32.38,23.38-35.08,24.28-18.89,9-18.89,9l-34.18,36-25.18,35.08-27,53.06-37.77,45-45,33.28-27.88,21.58L1251.38,1391l-107.94,29.68h-69.26l-4.49-57.56,45-58.55,99.84-68.28,30.58-16.19,26.08,28.78,62.07-22.48,72.85-65.66,51.27-67.46,5.4-26.09Z"/></clipPath></defs><g class="cls-2"><path class="cls-3" d="M1369.51,1138.55s85-103.68,211.83-175.45c85-33.68,132.23,8.48-10,108-11.37,6.28-120.42,78.12-172.18,182.14s-232.64,149.46-271.29,145.52c-73.73-7.53,25.58-102.32,94.79-138.43S1369.51,1138.55,1369.51,1138.55Z" transform="translate(-1097.89 -947.67)"/></g></svg>