<svg id="Layer_1" data-name="Layer 1" xmlns="http://www.w3.org/2000/svg" viewBox="0 0 365.63 381.75"><defs><style>.cls-1{fill:#fff;}</style></defs><path class="cls-1" d="M1021.47,896.09c3,80.72,6,160.95,8.94,241.45h13.43c3-80.31,6-160.55,9-241.75l28.14,18.09q66.35,42.64,132.71,85.24c2.64,1.69,4.36,3.36,4.43,7,.43,24.14,1.13,48.27,1.81,72.4.09,2.93-.28,4.75-3.72,5.79a364.26,364.26,0,0,0-104.85,51.3c-.79.56-1.65,1-3.52,2.22l50-134.28c-10,0-19.21-.15-28.44.2-1.1,0-2.48,2.75-3.06,4.45q-14.12,41.52-28,83.12c-10.71,31.83-21.47,63.63-32,95.5-1.15,3.47-2.8,4.49-6.34,4.44-15-.19-30-.24-45,0-4,.07-5.67-1.14-7-5-19.72-59-39.68-117.84-59.4-176.8-1.48-4.43-3.23-6.44-8.25-6.1-7.59.52-15.24.14-23.79.14,16.71,44.89,33.13,89,50,134.33-6.61-4.39-12.16-8.18-17.82-11.8a354,354,0,0,0-88.87-41.15c-4.24-1.28-5.65-3.1-5.48-7.6.86-23.79,1.3-47.59,2.15-71.39a8.4,8.4,0,0,1,3.2-5.93q79.64-51.51,159.47-102.7C1019.62,896.94,1020.21,896.71,1021.47,896.09Z" transform="translate(-854.27 -809.52)"/><path class="cls-1" d="M1152.14,929.3l-93.32-50.24c6.45-3.33,12-6.24,17.55-9.07,38.5-19.61,77-39.14,115.46-58.89,3.53-1.81,6.28-2,9.58,0,2.67,1.64,5.6,2.87,9,4.58C1191.05,853.46,1171.75,891.1,1152.14,929.3Z" transform="translate(-854.27 -809.52)"/><path class="cls-1" d="M922.14,929.31,863.82,815.72c4.22-2.11,8-4.15,11.92-5.85a5.36,5.36,0,0,1,4.07.11q66.9,33.91,133.71,68c.27.14.44.45,1.3,1.36Z" transform="translate(-854.27 -809.52)"/><path class="cls-1" d="M1179.56,944.05c11.19-31.95,22.17-63.27,33.15-94.6l1.11.09c1,37.86,2,75.72,3,114.54Z" transform="translate(-854.27 -809.52)"/><path class="cls-1" d="M857.44,963.66c1-38.42,2-76.29,3-115.72,1.2,2.56,1.89,3.76,2.34,5,10.18,29,20.27,58.07,30.58,87,1.15,3.26.49,4.61-2.43,6.12-9.89,5.13-19.64,10.55-29.45,15.82C860.37,962.57,859.14,963,857.44,963.66Z" transform="translate(-854.27 -809.52)"/></svg>